<svg height="512" viewBox="0 0 24 24" width="512" xmlns="http://www.w3.org/2000/svg" xmlns:xlink="http://www.w3.org/1999/xlink"><linearGradient id="_1" gradientUnits="userSpaceOnUse" x1="3.219" x2="16.138" y1="18.459" y2="5.541"><stop offset="0" stop-color="#00cd7c"/><stop offset="1" stop-color="#0094ad"/></linearGradient><g id="_01" data-name="01"><path d="m17.5 7.333-6.17-3.562c-2.092-1.209-4.1-1.377-5.665-.478s-2.415 2.728-2.415 5.145v7.125c0 2.417.859 4.244 2.419 5.144a4.341 4.341 0 0 0 2.2.57 7.023 7.023 0 0 0 3.469-1.047l6.17-3.563c2.092-1.208 3.242-2.867 3.242-4.667s-1.15-3.459-3.25-4.667zm-.75 8.035-6.17 3.563c-1.609.929-3.089 1.1-4.165.477s-1.665-1.987-1.665-3.845v-7.125c0-1.859.593-3.224 1.669-3.846a2.862 2.862 0 0 1 1.451-.368 5.557 5.557 0 0 1 2.714.845l6.17 3.563c1.61.93 2.5 2.125 2.5 3.368s-.89 2.439-2.5 3.368z" fill="url(#_1)"/></g></svg>