<svg height="512" viewBox="0 0 24 24" width="512" xmlns="http://www.w3.org/2000/svg" xmlns:xlink="http://www.w3.org/1999/xlink"><linearGradient id="_1" gradientUnits="userSpaceOnUse" x1="4.512" x2="19.826" y1="19.657" y2="4.343"><stop offset="0" stop-color="#00cd7c"/><stop offset="1" stop-color="#0094ad"/></linearGradient><g id="_01" data-name="01"><path d="m16.254 9.143-8.292-4.783a3.3 3.3 0 0 0 -4.953 2.856v9.567a3.291 3.291 0 0 0 4.951 2.857l8.294-4.784a3.3 3.3 0 0 0 0-5.713zm-.754 4.414-8.29 4.784a1.8 1.8 0 0 1 -2.7-1.558v-9.567a1.784 1.784 0 0 1 .9-1.559 1.786 1.786 0 0 1 1.8 0l8.29 4.783a1.8 1.8 0 0 1 0 3.115zm5.489-7.738v12.361a.75.75 0 0 1 -1.5 0v-12.361a.75.75 0 1 1 1.5 0z" fill="url(#_1)"/></g></svg>