<svg height="512" viewBox="0 0 24 24" width="512" xmlns="http://www.w3.org/2000/svg" xmlns:xlink="http://www.w3.org/1999/xlink"><linearGradient id="_1" gradientUnits="userSpaceOnUse" x1="6.979" x2="20.68" y1="18.851" y2="5.149"><stop offset="0" stop-color="#00cd7c"/><stop offset="1" stop-color="#0094ad"/></linearGradient><g id="_01" data-name="01"><path d="m21.4 6a2.673 2.673 0 0 0 -2.7 0l-5.707 3.3v-.959a2.7 2.7 0 0 0 -4.052-2.341l-6.341 3.663a2.7 2.7 0 0 0 0 4.674l6.339 3.663a2.7 2.7 0 0 0 4.054-2.337v-.953l5.707 3.29a2.7 2.7 0 0 0 4.053-2.337v-7.322a2.672 2.672 0 0 0 -1.353-2.341zm-9.9 4.72v4.937a1.2 1.2 0 0 1 -1.8 1.038l-6.35-3.656a1.2 1.2 0 0 1 0-2.078l6.341-3.661a1.2 1.2 0 0 1 1.8 1.039zm9.757 4.937a1.2 1.2 0 0 1 -1.8 1.038l-6.331-3.652a1.382 1.382 0 0 1 -.123-.082v-1.924c.035-.026.073-.052.113-.076l6.333-3.661a1.2 1.2 0 0 1 1.8 1.039z" fill="url(#_1)"/></g></svg>