<svg height="512" viewBox="0 0 24 24" width="512" xmlns="http://www.w3.org/2000/svg" xmlns:xlink="http://www.w3.org/1999/xlink"><linearGradient id="_1" gradientUnits="userSpaceOnUse" x1="3.32" x2="17.021" y1="18.851" y2="5.149"><stop offset="0" stop-color="#00cd7c"/><stop offset="1" stop-color="#0094ad"/></linearGradient><g id="_01" data-name="01"><path d="m21.4 9.663-6.339-3.663a2.7 2.7 0 0 0 -4.054 2.337v.953l-5.707-3.29a2.7 2.7 0 0 0 -4.05 2.341v7.318a2.695 2.695 0 0 0 4.05 2.341l5.706-3.292v.954a2.672 2.672 0 0 0 1.352 2.338 2.675 2.675 0 0 0 2.7 0l6.343-3.66a2.7 2.7 0 0 0 0-4.674zm-10.4 3.3c-.035.026-.073.051-.113.075l-6.336 3.662a1.2 1.2 0 0 1 -1.8-1.039v-7.32a1.207 1.207 0 0 1 1.2-1.2 1.2 1.2 0 0 1 .6.164l6.331 3.652a1.382 1.382 0 0 1 .123.082zm9.643.075-6.334 3.662a1.2 1.2 0 0 1 -1.8-1.039v-7.32a1.187 1.187 0 0 1 .6-1.039 1.19 1.19 0 0 1 1.2 0l6.339 3.658a1.2 1.2 0 0 1 0 2.078z" fill="url(#_1)"/></g></svg>