<svg height="512" viewBox="0 0 24 24" width="512" xmlns="http://www.w3.org/2000/svg" xmlns:xlink="http://www.w3.org/1999/xlink"><linearGradient id="_1" gradientUnits="userSpaceOnUse" x1="2.817" x2="19.629" y1="20.045" y2="3.233"><stop offset="0" stop-color="#00cd7c"/><stop offset="1" stop-color="#0094ad"/></linearGradient><g id="_01" data-name="01"><path d="m18.791 2.881-4.421-1.473a2.784 2.784 0 0 0 -2.535.3 2.777 2.777 0 0 0 -1.084 2.3v10.56a4.737 4.737 0 1 0 1.5 3.445v-9.929a3.3 3.3 0 0 0 .958.518l4.422 1.473a3.241 3.241 0 0 0 1.023.173 2.571 2.571 0 0 0 1.512-.47 2.783 2.783 0 0 0 1.084-2.311v-1.174a3.787 3.787 0 0 0 -2.459-3.412zm-11.291 18.382a3.25 3.25 0 1 1 3.25-3.25 3.254 3.254 0 0 1 -3.25 3.25zm12.25-13.8a1.291 1.291 0 0 1 -.462 1.093 1.285 1.285 0 0 1 -1.184.092l-4.421-1.47a2.3 2.3 0 0 1 -1.433-1.987v-1.175a1.292 1.292 0 0 1 .462-1.093 1.059 1.059 0 0 1 .631-.189 1.742 1.742 0 0 1 .552.1l4.422 1.473a2.3 2.3 0 0 1 1.433 1.986z" fill="url(#_1)"/></g></svg>