<svg height="512" viewBox="0 0 24 24" width="512" xmlns="http://www.w3.org/2000/svg" xmlns:xlink="http://www.w3.org/1999/xlink"><linearGradient id="_1" gradientUnits="userSpaceOnUse" x1="4.174" x2="19.488" y1="19.657" y2="4.343"><stop offset="0" stop-color="#00cd7c"/><stop offset="1" stop-color="#0094ad"/></linearGradient><g id="_01" data-name="01"><path d="m19.339 4.359a3.26 3.26 0 0 0 -3.3 0l-8.293 4.785a3.3 3.3 0 0 0 0 5.713l8.292 4.783a3.3 3.3 0 0 0 4.953-2.856v-9.567a3.263 3.263 0 0 0 -1.652-2.858zm.152 12.425a1.8 1.8 0 0 1 -2.7 1.557l-8.291-4.783a1.8 1.8 0 0 1 0-3.115l8.29-4.784a1.8 1.8 0 0 1 2.7 1.558zm-14.982-10.964v12.361a.75.75 0 0 1 -1.5 0v-12.361a.75.75 0 0 1 1.5 0z" fill="url(#_1)"/></g></svg>