<svg height="512" viewBox="0 0 24 24" width="512" xmlns="http://www.w3.org/2000/svg" xmlns:xlink="http://www.w3.org/1999/xlink"><linearGradient id="_1" gradientUnits="userSpaceOnUse" x1="2.918" x2="21.082" y1="21.082" y2="2.918"><stop offset="0" stop-color="#00cd7c"/><stop offset="1" stop-color="#0094ad"/></linearGradient><g id="_01" data-name="01"><path d="m8.642 2.25h-3.634c-1.856 0-2.758.863-2.758 2.64v14.22c0 1.777.9 2.64 2.758 2.64h3.634c1.856 0 2.758-.863 2.758-2.64v-14.22c0-1.777-.9-2.64-2.758-2.64zm1.258 16.86c0 .869-.173 1.14-1.258 1.14h-3.634c-1.084 0-1.258-.271-1.258-1.14v-14.22c0-.869.174-1.14 1.258-1.14h3.634c1.085 0 1.258.271 1.258 1.14zm9.092-16.86h-3.634c-1.856 0-2.758.863-2.758 2.64v14.22c0 1.777.9 2.64 2.758 2.64h3.634c1.856 0 2.758-.863 2.758-2.64v-14.22c0-1.777-.902-2.64-2.758-2.64zm1.258 16.86c0 .869-.174 1.14-1.258 1.14h-3.634c-1.085 0-1.258-.271-1.258-1.14v-14.22c0-.869.173-1.14 1.258-1.14h3.634c1.084 0 1.258.271 1.258 1.14z" fill="url(#_1)"/></g></svg>